<?xml version="1.0" encoding="UTF-8"?>
<svg xmlns="http://www.w3.org/2000/svg" version="1.1" viewBox="0 0 800 800">
  <!-- Generator: Adobe Illustrator 29.6.1, SVG Export Plug-In . SVG Version: 2.1.1 Build 9)  -->
  <defs>
    <style>
      .st0 {
        stroke-width: 9px;
      }

      .st0, .st1, .st2, .st3, .st4 {
        fill: none;
      }

      .st0, .st1, .st5, .st6, .st7 {
        stroke-linecap: round;
        stroke-linejoin: round;
      }

      .st0, .st8, .st2, .st5, .st3, .st4, .st7 {
        stroke: #fff;
      }

      .st1 {
        stroke: #003c6f;
        stroke-width: 5px;
      }

      .st8, .st9, .st5, .st10, .st11, .st7 {
        fill: #fff;
      }

      .st8, .st2, .st3, .st4 {
        stroke-miterlimit: 10;
      }

      .st12 {
        fill: #003c6f;
      }

      .st5 {
        stroke-width: 3px;
      }

      .st3 {
        stroke-width: 2px;
      }

      .st10 {
        display: none;
      }

      .st10, .st11 {
        font-family: MicrosoftSansSerif, 'Microsoft Sans Serif';
        font-size: 32px;
      }

      .st4 {
        stroke-width: 11px;
      }

      .st6 {
        fill: #d6ff55;
        stroke: #ffed00;
      }
    </style>
  </defs>
  <g id="Capa_6">
    <path class="st12" d="M722.89,309.53l-626.78-1.89c-5.2-6.41-12.04-3.95-17.78,1.39-5.48,5.09-8.6,11.04-3.22,16.79,3.72,48.21,7.43,96.41,11.15,144.62-.09,1.57-.36,9.37,5.5,15.87,4.49,4.98,10,6.34,11.94,6.73,99.56,15.79,199.12,31.57,298.69,47.36l305.62-47.37c2.31-.63,9.86-2.99,15.2-10.48,6.98-9.78,4.67-20.55,4.28-22.27,2.9-44.44,5.8-88.88,8.69-133.32-.3-2.14-1.34-7.43-5.69-12.12-2.74-2.95-5.71-4.51-7.59-5.3Z"/>
    <polygon class="st9" points="468.86 388.41 469.35 387.39 469.83 388.39 468.86 388.41"/>
    <polygon class="st9" points="647.39 366.27 642.59 368.73 640.7 374.16 641.03 376.64 644.98 375.34 649.23 367.03 647.39 366.27"/>
    <polygon class="st9" points="694.75 366.22 699.86 367.39 701.13 372.06 698.53 371.73 694.75 366.22"/>
    <polygon class="st9" points="690.31 376.06 690.64 377.41 689.87 377.25 689.87 376.38 690.25 376.05 690.31 376.06"/>
    <polygon class="st9" points="641.16 413.92 641.16 420.12 644.78 424.01 648.74 424.3 641.16 413.92"/>
    <polygon class="st9" points="700.02 416.21 694.25 423.62 695.15 424.64 701.27 419.89 701.6 416.63 700.02 416.21"/>
    <polygon class="st9" points="690.51 412.05 688.43 413.92 689.33 414.94 691.17 413.66 690.51 412.05"/>
    <path class="st9" d="M112.61,419.51c.23,3.44,3.13,6.12,6.54,6.08,3.34-.04,6.15-2.7,6.37-6.08,0-21.89.01-43.79.02-65.68.03-.23.16-1.02.85-1.68.62-.59,1.33-.72,1.57-.75h33.08c.18,0,1.47.02,2.34,1.08.65.79.68,1.68.67,1.94v31.8c0,.17,0,1.18-.82,1.97-.78.76-1.74.77-1.92.77h-25.81c-2.85.91-4.69,3.62-4.48,6.46.19,2.52,1.97,4.71,4.48,5.5h36.57c.34-.02,2.23-.16,3.59-1.75,1.04-1.22,1.17-2.58,1.19-3.03v-50.8c0-.48-.07-2.77-1.9-4.66-1.93-1.99-4.37-2.05-4.81-2.05h-50.61c-.35-.02-3.26-.16-5.3,2.16-1.73,1.96-1.62,4.28-1.59,4.73-.01,24.67-.03,49.33-.04,74Z"/>
  </g>
  <g id="Capa_1">
    <path class="st3" d="M647.35,365.85h49.25c.5.07,1.97.32,3.26,1.55,1.4,1.33,1.67,2.94,1.74,3.42v47.22c-.14.76-.58,2.45-2,4.01-1.76,1.94-3.92,2.45-4.65,2.59h-47.6c-.73-.14-2.72-.64-4.44-2.4-1.6-1.64-2.06-3.47-2.21-4.21v-45.21c.05-.66.27-2.65,1.83-4.44,1.83-2.1,4.23-2.46,4.82-2.54Z"/>
    <path class="st3" d="M655.88,376.64h31.62c.32.04,1.26.2,2.09.98.9.85,1.07,1.86,1.11,2.17v29.94c-.09.48-.37,1.55-1.28,2.55-1.13,1.23-2.52,1.55-2.98,1.64h-30.56c-.47-.09-1.75-.4-2.85-1.52-1.03-1.04-1.33-2.2-1.42-2.67v-28.66c.03-.42.17-1.68,1.18-2.81,1.18-1.33,2.71-1.56,3.09-1.61Z"/>
    <path class="st4" d="M652.48,371.21h39.43c.4.05,1.58.26,2.61,1.27,1.12,1.09,1.34,2.41,1.39,2.8v38.71c-.12.62-.46,2.01-1.6,3.29-1.41,1.59-3.14,2.01-3.72,2.12h-38.11c-.59-.12-2.18-.52-3.56-1.97-1.28-1.35-1.65-2.84-1.77-3.45v-37.05c.04-.54.21-2.17,1.47-3.64,1.47-1.72,3.38-2.02,3.86-2.08Z"/>
  </g>
  <g id="Capa_3">
    <path class="st0" d="M98.41,306.36c-2.97,0-5.91.63-8.57,1.95-1.82.91-3.82,2.19-5.75,4-.04.04-.08.07-.12.11-4.21,4-6.26,9.76-5.81,15.55,3.77,48.7,7.55,97.4,11.32,146.1.12,1.61.42,3.2.96,4.72.75,2.13,2.03,4.81,4.24,7.42.5.59,1.01,1.13,1.52,1.63,2.82,2.75,6.48,4.47,10.37,5.09,33.11,5.27,266.27,42.38,295.77,47.08,2.04.32,4.1.32,6.14,0,99.91-15.7,199.81-31.39,299.72-47.09,3.39-.53,6.6-1.93,9.26-4.09,1.15-.93,2.33-2.03,3.49-3.33.92-1.03,1.7-2.05,2.38-3.04,1.91-2.79,3-6.06,3.27-9.43,3.73-48.13,7.46-96.27,11.19-144.4.39-5.04-1.09-10.1-4.37-13.95-.68-.8-1.45-1.6-2.31-2.37-1.14-1.02-2.3-1.87-3.42-2.56-3.04-1.88-6.58-2.83-10.16-2.83-206.37-.19-412.74-.37-619.12-.56Z"/>
  </g>
  <g id="Capa_2">
    <path class="st1" d="M93.31,300.58c-1.76.02-8.67.3-14.74,5.67-.3.26-.58.53-.85.79-4.54,4.46-6.68,10.84-6.17,17.19,3.99,49.64,7.97,99.28,11.96,148.92.14,1.7.45,3.38.99,4.99,1.02,3.09,2.93,7.26,6.55,11.22,1.62,1.77,3.29,3.19,4.87,4.31,2.68,1.91,5.8,3.13,9.05,3.67,99.63,16.42,199.26,32.84,298.89,49.26,2.34.39,4.73.39,7.07.02l299.22-47.36c1.58-.25,3.12-.66,4.6-1.25,2.96-1.18,7.08-3.39,10.69-7.52,2.94-3.37,4.54-6.85,5.43-9.51.52-1.56.83-3.18.97-4.82,4.35-49.15,8.71-98.3,13.06-147.45.36-4.11-.38-8.25-2.27-11.91-1.1-2.12-2.61-4.41-4.71-6.6-4.69-4.88-10.09-6.96-13.69-7.87-1.71-.43-3.47-.63-5.24-.64-208.56-.38-417.11-.75-625.67-1.13Z"/>
  </g>
  <g id="Capa_4">
    <path class="st5" d="M169.53,392.42"/>
    <path class="st7" d="M217.53,389.41l25.51.11c3.05.49,5.35,2.44,5.7,4.75.41,2.72-1.96,5.43-5.6,6.1-16.92,0-33.84,0-50.76,0-3.62-.49-6.15-3.09-5.91-5.85.22-2.5,2.66-4.63,5.91-5.06,8.38-.01,16.77-.03,25.15-.04Z"/>
    <path class="st7" d="M447.38,389.46l10.75.09c2.64.02,4.88,1.97,5.14,4.56,0,.06.01.12.02.18.04.54.03,1.07-.04,1.6-.32,2.56-2.56,4.46-5.18,4.46h-21.3c-2.56,0-4.79-1.82-5.15-4.32-.07-.49-.1-.99-.07-1.51.01-.24.03-.48.06-.71.34-2.5,2.58-4.32,5.14-4.32,3.54-.01,7.09-.02,10.63-.03Z"/>
    <path class="st7" d="M217.31,365.19l25.51.12c3.05.53,5.35,2.62,5.7,5.1.41,2.91-1.96,5.82-5.6,6.55-16.92,0-33.84,0-50.76-.01-3.62-.53-6.15-3.31-5.91-6.28.22-2.68,2.66-4.97,5.91-5.43,8.38-.01,16.77-.03,25.15-.04Z"/>
    <path class="st7" d="M217.53,413.08l25.51.12c3.05.54,5.35,2.66,5.7,5.18.41,2.96-1.96,5.92-5.6,6.65-16.92,0-33.84,0-50.76-.01-3.62-.54-6.15-3.37-5.91-6.38.22-2.72,2.66-5.05,5.91-5.52,8.38-.01,16.77-.03,25.15-.04Z"/>
    <path class="st8" d="M258.47,393.62c.86-2.36,3.12-3.98,5.67-4.09,2.73-.11,5.26,1.55,6.19,4.09v26.07c-.2,3.15-2.98,5.57-6.14,5.46-3.01-.1-5.53-2.47-5.72-5.46v-26.07Z"/>
    <path class="st8" d="M595.4,402.3c-.58-.49-1.07-1.09-1.39-1.78-1.09-2.32-.99-4.82.34-6.56,1.45-1.89,4.11-2.55,6.8-1.77.71.21,1.37.59,1.93,1.07l24.6,20.92c2.93,2.75,3.48,6.87,1.33,9.19-2.05,2.21-5.98,2.18-9.01-.16l-24.6-20.92Z"/>
    <path class="st8" d="M268.75,367.01c-2.46-2.36-6.4-2.24-8.67.17-2.18,2.31-2.17,6.05.09,8.41,15.71,15.65,31.42,31.3,47.13,46.94.17.17.33.33.47.52.44.55,1.9,2.1,4.22,2.06,2.58-.05,4.01-2.04,4.15-2.24.36-.43.77-1,1.13-1.73h0c.43-.85.65-1.78.65-2.73v-46.27c.11-4.17-3.46-7.21-6.81-6.8-2.87.36-5.36,3.24-5.21,6.75,0,8.71,0,17.42,0,26.13,0,.16.06,1.67-1.12,2.6-1.04.83-2.61.85-3.83,0-10.74-11.27-21.48-22.54-32.23-33.81Z"/>
    <path class="st6" d="M348.4,407.72"/>
    <line class="st2" x1="129.58" y1="475.81" x2="251.56" y2="475.81"/>
    <line class="st2" x1="567.54" y1="475.81" x2="689.53" y2="475.81"/>
    <text class="st10" transform="translate(261.36 485.85)"><tspan x="0" y="0">Eficiencia</tspan></text>
    <text class="st11" transform="translate(271.11 485.88)"><tspan x="0" y="0">Eficiência</tspan></text>
    <text class="st10" transform="translate(265.52 485.88)"><tspan x="0" y="0">Livestock </tspan></text>
    <text class="st10" transform="translate(412.64 485.85)"><tspan x="0" y="0">Ganadera</tspan></text>
    <text class="st11" transform="translate(421.44 485.88)"><tspan x="0" y="0">Pecuária</tspan></text>
    <text class="st10" transform="translate(415.21 485.88)"><tspan x="0" y="0">Efficiency</tspan></text>
    <path class="st12" d="M610.89,449.88"/>
    <path class="st12" d="M523.07,400.12"/>
    <path class="st8" d="M407.41,414.89c-2.3,5.77.08,8.75,2.35,9.73,2.34,1.01,6.35,1.06,8.81-5.1,8.37-20.99,17.7-44.73,26.07-65.71.34-.86,1.02-1.58,1.91-1.83.23-.07.49-.11.77-.1,1.28.01,2.46.91,2.91,2.24,8.32,20.83,16.63,41.66,24.95,62.48.05.11,1.5,2.85,1.56,2.96,3.14,6.09,6.71,6.02,8.9,4.91,2.09-1.06,3.96-2.94,1.72-8.58-9.3-22.65-19.68-48.5-28.99-71.15-.15-.37-.36-.7-.64-.98-1.26-1.31-4.82-4.49-10.28-4.66-5.85-.18-9.78,3.24-11.14,4.62-.3.3-.52.65-.68,1.04-9.08,22.65-19.15,47.49-28.23,70.14Z"/>
    <path class="st9" d="M381.41,364.76c.61.1,2.3.4,3.44,1.63,1.31,1.42,1.14,3.18,1.18,4.47.05,1.32.11,3.26-1.28,4.87-1.16,1.34-2.72,1.71-3.34,1.82h-39.3c-.19.03-.76.15-1.23.66-.42.44-.53.94-.56,1.13-.02,2.7-.04,5.4-.06,8.09,0,.14.03.55.33.93.43.54,1.07.57,1.17.57h39.64c.3,0,2.32.11,3.65,1.79.92,1.16,1,2.42,1.01,2.87v26.08c-.04.53-.26,2.36-1.77,3.93-1.62,1.68-3.61,1.91-4.11,1.95h-46.26c-.4.02-3.38.33-5.07-1.84-1.1-1.42-1.54-3.19-1.51-4.61.03-1.32.37-3.15,1.37-4.46,1.66-2.18,4.77-1.89,5.21-1.88h37.35c.13,0,.85-.04,1.38-.64.45-.5.49-1.08.5-1.24v-8.4c0-.08.06-.69-.43-1.16-.46-.44-1.03-.39-1.12-.38h-37.68c-.42,0-3-.07-4.9-2.19-1.6-1.79-1.68-3.86-1.68-4.39v-24.26c.04-.46.23-2.17,1.66-3.61,1.46-1.48,3.21-1.67,3.67-1.71,16.25,0,32.49-.01,48.74-.02Z"/>
    <path class="st9" d="M497.77,417.99c-.02.63-.04,2.86,1.57,4.87,2.21,2.76,5.6,2.72,6.01,2.71h47.64c.27.02,2.17.15,3.66-1.32,1.52-1.5,1.39-3.45,1.37-3.71,0-4.58.07-21.09.07-25.67-.72-2.97-3.47-5.96-6.52-5.98-3.08-.02-5.79,2.98-6.52,5.98,0,1.35,0,14.62,0,15.97.01.05.19.87-.43,1.49-.61.61-1.44.44-1.49.43h-30.05c-.14,0-1.23-.06-1.88-.97-.37-.53-.41-1.08-.41-1.31v-29.75c-.02-.16-.14-1.43.83-2.41.99-1,2.28-.87,2.43-.86h37.29c3.86.03,6.88-3.23,6.66-6.8-.21-3.28-3.12-6.02-6.66-5.98h-46.56c-.62.06-2.91.37-4.8,2.32-1.8,1.85-2.1,4-2.17,4.65-.02,15.45-.04,30.9-.06,46.35Z"/>
    <path class="st9" d="M523.47,388.9c-3.15.11-5.71,3.03-5.71,6.23s2.55,5.61,5.71,5.72h26.18c3.34.12,8.01-2.53,8.15-5.72.14-3.37-4.61-6.36-8.15-6.23h-26.18Z"/>
    <path class="st9" d="M566.97,418.94c-.06,3.56,2.8,6.51,6.27,6.58,3.57.07,6.6-2.92,6.53-6.58v-40.03c0-.12.03-.58.39-.97.42-.46.97-.49,1.07-.49,8.06,0,16.67,0,24.73.01.73.11,1.54.73,1.68,1.41.17.85-.52,1.63-.57,1.68-.54.64-1.35,1.46-1.89,2.1-.13.15-.51.63-.61.8-.49.85-1.95,2.77-.81,5.16,1.01,2.12,2.62,3.15,5.18,2.77,1.56-.23,3.69-1.47,4.77-2.62,3.58-3.84,12.76-12.15,15.64-16.34.06-.09,1.83-2.2,1.58-4.61-.15-1.48-2.19-3.06-3.69-3.14-18.39,0-35.23,0-53.62,0-.25-.02-3.3.37-4.66,1.94-.3.35-.61.75-.86,1.19-.79,1.39-1.14,3-1.14,4.59.01,15.98-.02,30.47,0,46.54Z"/>
    <path class="st8" d="M591.66,377.16"/>
    <path class="st8" d="M637.09,370.4"/>
  </g>
</svg>