<?xml version="1.0" encoding="UTF-8"?>
<svg id="Capa_1" xmlns="http://www.w3.org/2000/svg" version="1.1" viewBox="0 0 800 800">
  <!-- Generator: Adobe Illustrator 29.6.1, SVG Export Plug-In . SVG Version: 2.1.1 Build 9)  -->
  <defs>
    <style>
      .st0 {
        fill: none;
        stroke: #fff;
        stroke-miterlimit: 10;
        stroke-width: 8px;
      }

      .st1 {
        fill: #fff;
      }

      .st2 {
        fill: #003c6f;
      }
    </style>
  </defs>
  <path class="st2" d="M88.62,180.54h652.02c29.24,0,51.78,29.19,47.91,62.04l-41.36,351.27c-2.63,22.3-17.01,40.51-36.27,45.93l-286.33,80.55c-6.46,1.82-13.21,1.82-19.67.01l-288-80.56c-19.37-5.42-33.81-23.77-36.36-46.2L40.68,242.33c-3.72-32.77,18.8-61.78,47.94-61.78Z"/>
  <path class="st0" d="M87.06,199.14h653.92c17.96,0,31.9,17.69,29.8,37.83l-35.91,345.03c-2.1,20.18-15.09,36.76-32.57,41.59l-275.99,76.23c-7.86,2.17-16.07,2.19-23.95.06l-274.95-74.41c-17.17-4.65-29.96-20.85-32.08-40.63L57.96,236.22c-2.11-19.71,11.52-37.08,29.11-37.08Z"/>
  <path class="st1" d="M774.3,559.26"/>
  <polygon class="st1" points="586.91 452.07 588.32 449.09 589.71 452 586.91 452.07"/>
  <path class="st1" d="M173.77,540.15c.71,10.81,9.85,19.24,20.56,19.11,10.51-.13,19.35-8.49,20.05-19.11.02-68.85.04-137.7.07-206.55.1-.73.51-3.22,2.67-5.27,1.96-1.86,4.18-2.25,4.95-2.35h104.03c.57,0,4.61.07,7.35,3.39,2.05,2.49,2.13,5.27,2.12,6.09v100.01c0,.55-.02,3.7-2.57,6.18-2.46,2.4-5.47,2.43-6.04,2.43h-81.16c-8.95,2.85-14.75,11.38-14.08,20.3.6,7.92,6.19,14.83,14.08,17.29h114.99c1.08-.06,7.01-.5,11.29-5.51,3.27-3.83,3.67-8.1,3.74-9.52v-159.75c0-1.51-.21-8.71-5.97-14.65-6.06-6.25-13.73-6.44-15.13-6.45h-159.14c-1.11-.07-10.25-.5-16.68,6.78-5.44,6.16-5.09,13.47-4.99,14.89-.04,77.57-.09,155.13-.13,232.7Z"/>
  <path class="st1" d="M527.4,445.92l33.81.3c8.29.07,15.34,6.27,16.16,14.48.02.19.04.38.05.57.13,1.71.08,3.42-.12,5.07-1,8.13-8.05,14.19-16.28,14.19l-66.97-.02c-8.04,0-15.08-5.77-16.19-13.7-.22-1.55-.3-3.16-.23-4.79.03-.76.1-1.51.2-2.25,1.06-7.93,8.11-13.72,16.15-13.74,11.14-.04,22.28-.07,33.42-.11Z"/>
  <path class="st1" d="M401.72,526.73c-7.23,18.35.24,27.8,7.39,30.91,7.35,3.2,19.96,3.37,27.69-16.2,26.33-66.71,55.66-142.17,81.99-208.88,1.08-2.74,3.22-5.02,6.02-5.82.74-.21,1.54-.34,2.41-.33,4.01.03,7.73,2.88,9.16,7.13,26.16,66.21,52.31,132.42,78.47,198.62.14.36,4.72,9.06,4.89,9.4,9.88,19.37,21.11,19.14,27.98,15.61,6.59-3.38,12.45-9.35,5.41-27.29-29.26-72.01-61.9-154.17-91.16-226.18-.47-1.17-1.13-2.21-2-3.12-3.96-4.18-15.17-14.28-32.33-14.81-18.4-.57-30.76,10.29-35.02,14.69-.93.96-1.65,2.07-2.14,3.32-28.55,71.99-60.22,150.96-88.77,222.95Z"/>
</svg>