<?xml version="1.0" encoding="UTF-8"?>
<svg id="Capa_1" xmlns="http://www.w3.org/2000/svg" version="1.1" viewBox="0 0 800 800">
  <!-- Generator: Adobe Illustrator 29.6.1, SVG Export Plug-In . SVG Version: 2.1.1 Build 9)  -->
  <defs>
    <style>
      .st0 {
        fill: none;
        stroke: #fff;
        stroke-miterlimit: 10;
        stroke-width: 8px;
      }

      .st1 {
        fill: #fff;
      }

      .st2 {
        fill: #003c6f;
      }
    </style>
  </defs>
  <path class="st2" d="M73.99,172.52h652.02c29.24,0,51.78,29.19,47.91,62.04l-41.36,351.27c-2.63,22.3-17.01,40.51-36.27,45.93l-286.33,80.55c-6.46,1.82-13.21,1.82-19.67.01l-288-80.56c-19.37-5.42-33.81-23.77-36.36-46.2L26.05,234.31c-3.72-32.77,18.8-61.78,47.94-61.78Z"/>
  <path class="st0" d="M72.43,191.12h653.92c17.96,0,31.9,17.69,29.8,37.83l-35.91,345.03c-2.1,20.18-15.09,36.76-32.57,41.59l-275.99,76.23c-7.86,2.17-16.07,2.19-23.95.06l-274.95-74.41c-17.17-4.65-29.96-20.85-32.08-40.63L43.33,228.2c-2.11-19.71,11.52-37.08,29.11-37.08Z"/>
  <path class="st1" d="M284.38,585.95c.91,13.49,12.53,24.02,26.15,23.85,13.37-.16,24.61-10.6,25.5-23.85.03-85.95.06-171.9.08-257.85.12-.91.65-4.02,3.4-6.58,2.49-2.32,5.32-2.81,6.29-2.93h132.31c.73,0,5.86.08,9.35,4.23,2.61,3.1,2.71,6.58,2.7,7.6v124.85c0,.68-.03,4.61-3.27,7.72-3.12,3-6.95,3.04-7.69,3.03h-103.23c-11.39,3.56-18.76,14.2-17.9,25.35.76,9.89,7.88,18.51,17.9,21.58h146.25c1.38-.08,8.92-.62,14.36-6.88,4.16-4.79,4.67-10.11,4.76-11.88v-199.44c-.01-1.89-.27-10.88-7.59-18.29-7.7-7.8-17.46-8.04-19.25-8.05h-202.4c-1.42-.09-13.03-.62-21.21,8.47-6.92,7.69-6.47,16.82-6.35,18.58-.06,96.84-.11,193.67-.17,290.51Z"/>
  <path class="st1" d="M344.31,311.03l142.39-.87c5.27-.03,9.56,4.23,9.56,9.5v146.27c0,4.72-3.45,8.75-8.12,9.4-14.06,1.97-33.2,1.44-55.67.54-59.93-2.39-89.87-56.76-98.13-71.49-.83-1.48-1.25-3.15-1.21-4.85l1.74-79.21c.11-5.14,4.3-9.26,9.44-9.29Z"/>
  <path class="st1" d="M774.35,549.54"/>
  <path class="st2" d="M336.11,324.1c.03-5.94,37.66-5.47,43.59-5.02.45.03,1.06.07,1.93.12.39.02.78.04,1.17.05,1.79.07,2.55-2.24,1.08-3.26h0c-5.87-4.05-6.6-4.45-7.97-5.46-4.72-3.45-7.59-7.12-10.22-10.48-3.67-4.69-5.91-7.54-7.28-12.13-.77-2.58-1.12-4-1.21-5.49-.13-2.14,1.28-4.86,3.07-6.03,1.31-.85,2.68-1.58,5.16-2.52,11.39-4.33,21.9-1.07,25.96.19,3.63,1.13,9.53,3.45,15.7,8.42.45.37,1.06.49,1.61.3,6.14-2.06,29.95-9.06,46.65,3.89,2.15,1.66,4.39,3.83,6.5,6.66,2.47,3.54,5.2,7.23,8.23,11,2.8,3.49,5.57,6.71,8.27,9.68,2.02,2.21,4.43,5.28,6.58,9.27,1.82,3.37,2.97,6.51,3.72,9.09.02.06.04.12.06.18,3.65,8.47,9.29,19.19,17.98,30.28,6.71,8.55,13.56,15.2,19.51,20.21.14.12.3.21.48.28,1.6.6,9.84,4.09,11.68,12.73,1.28,5.97-1.27,10.76-2.04,12.1-.01.02-.02.04-.03.06-1.49,3.26-4.34,8.42-9.56,13.29-6.04,5.63-12.34,8.16-15.9,9.29-2.63.73-7.15,1.63-12.71.93-5.42-.68-9.5-2.59-11.85-3.92-1.91-1.12-5.6-2.94-10.59-3.36-4.49-.37-8.08.55-10.13,1.26-.04.02-.08.03-.13.04-3.34.81-7.35,1.53-11.91,1.83-5.57.37-10.44.02-14.36-.54-.03,0-.06,0-.09-.02-1.46-.36-5.27-1.08-9.64.55-3.83,1.43-6.09,3.93-7.04,5.13-.03.04-.05.08-.08.11-5,5.53-9.73,12.03-16.18,19.79-.52.63-1.02,1.28-1.48,1.96l-1.76,2.58c-8.65,16.02-10.51,20.25-12.97,25.24-2.29,4.63-11.26,30.78-13.9,30.55-34.73-2.31-11.81-45.58-13.57-67.13-.52-6.35-26.3-22.37-26.31-37.11-.01-15.87.12-26.49.1-35.54"/>
</svg>